<?xml version="1.0" encoding="UTF-8" standalone="no"?>
<!-- Created with Inkscape (http://www.inkscape.org/) -->

<svg
   version="1.1"
   id="svg2"
   width="793.70667"
   height="1122.52"
   viewBox="0 0 793.70667 1122.52"
   sodipodi:docname="aikido_kanji_vector_by_nitennoyume_d949m1o.ai"
   xmlns:inkscape="http://www.inkscape.org/namespaces/inkscape"
   xmlns:sodipodi="http://sodipodi.sourceforge.net/DTD/sodipodi-0.dtd"
   xmlns="http://www.w3.org/2000/svg"
   xmlns:svg="http://www.w3.org/2000/svg">
  <defs
     id="defs6">
    <clipPath
       clipPathUnits="userSpaceOnUse"
       id="clipPath16">
      <path
         d="M 0,841.89 H 595.28 V 0 H 0 Z"
         id="path14" />
    </clipPath>
  </defs>
  <sodipodi:namedview
     id="namedview4"
     pagecolor="#ffffff"
     bordercolor="#000000"
     borderopacity="0.25"
     inkscape:showpageshadow="2"
     inkscape:pageopacity="0.0"
     inkscape:pagecheckerboard="0"
     inkscape:deskcolor="#d1d1d1" />
  <g
     id="g8"
     inkscape:groupmode="layer"
     inkscape:label="aikido_kanji_vector_by_nitennoyume_d949m1o"
     transform="matrix(1.3333333,0,0,-1.3333333,0,1122.52)">
    <g
       id="g10">
      <g
         id="g12"
         clip-path="url(#clipPath16)">
        <g
           id="g18"
           transform="translate(180.5972,678.0322)">
          <path
             d="m 0,0 c 0,0 -22.274,-14.515 -24.776,-16.267 -2.503,-1.752 -4.255,-2.503 -2.253,-3.504 2.002,-1.001 1.502,-0.751 4.755,0 3.253,0.751 28.116,5.924 39.292,11.512 5.506,2.753 42.295,37.29 54.309,57.812 12.012,20.522 15.265,25.277 17.518,27.029 2.252,1.752 2.756,2.407 4.004,2.502 3.254,0.251 8.76,-4.754 8.76,-4.754 0,0 12.263,-15.017 16.767,-20.773 4.505,-5.756 25.528,-29.531 27.28,-31.283 1.752,-1.752 18.019,-20.022 21.523,-22.274 3.503,-2.252 10.51,-6.757 13.264,-7.758 2.753,-1.001 5.757,-1.502 8.509,-1.252 2.753,0.251 47.3,6.507 49.803,7.509 2.503,1.001 5.506,0.75 5.506,3.753 0,3.003 0.501,4.505 -2.252,5.006 -2.753,0.5 -34.036,8.509 -46.55,11.262 -12.513,2.753 -15.266,3.503 -15.266,3.503 0,0 -35.038,33.537 -45.049,46.801 -10.01,13.264 -12.013,12.763 -17.269,18.019 -5.254,5.256 -10.76,7.508 -14.014,11.012 -3.253,3.503 -4.254,9.01 -6.507,14.015 -2.252,5.005 -5.756,9.259 -10.762,10.01 -5.005,0.751 -9.759,-0.751 -12.512,-3.503 -2.753,-2.753 -4.255,-2.503 -2.003,-4.755 2.253,-2.253 4.005,-4.005 4.505,-6.007 0.501,-2.002 0,0 -1.501,-3.003 C 72.089,98.63 49.809,63.046 49.303,61.816 47.551,57.562 35.538,40.043 31.534,32.785 27.939,26.271 24.509,22.218 9.51,7.258 6.257,4.014 0,0 0,0"
             style="fill:#000000;fill-opacity:1;fill-rule:nonzero;stroke:none"
             id="path20" />
        </g>
        <g
           id="g22"
           transform="translate(180.5972,678.0322)">
          <path
             d="m 0,0 c 0,0 -22.274,-14.515 -24.776,-16.267 -2.503,-1.752 -4.255,-2.503 -2.253,-3.504 2.002,-1.001 1.502,-0.751 4.755,0 3.253,0.751 28.116,5.924 39.292,11.512 5.506,2.753 42.295,37.29 54.309,57.812 12.012,20.522 15.265,25.277 17.518,27.029 2.252,1.752 2.756,2.407 4.004,2.502 3.254,0.251 8.76,-4.754 8.76,-4.754 0,0 12.263,-15.017 16.767,-20.773 4.505,-5.756 25.528,-29.531 27.28,-31.283 1.752,-1.752 18.019,-20.022 21.523,-22.274 3.503,-2.252 10.51,-6.757 13.264,-7.758 2.753,-1.001 5.757,-1.502 8.509,-1.252 2.753,0.251 47.3,6.507 49.803,7.509 2.503,1.001 5.506,0.75 5.506,3.753 0,3.003 0.501,4.505 -2.252,5.006 -2.753,0.5 -34.036,8.509 -46.55,11.262 -12.513,2.753 -15.266,3.503 -15.266,3.503 0,0 -35.038,33.537 -45.049,46.801 -10.01,13.264 -12.013,12.763 -17.269,18.019 -5.254,5.256 -10.76,7.508 -14.014,11.012 -3.253,3.503 -4.254,9.01 -6.507,14.015 -2.252,5.005 -5.756,9.259 -10.762,10.01 -5.005,0.751 -9.759,-0.751 -12.512,-3.503 -2.753,-2.753 -4.255,-2.503 -2.003,-4.755 2.253,-2.253 4.005,-4.005 4.505,-6.007 0.501,-2.002 0,0 -1.501,-3.003 C 72.089,98.63 49.809,63.046 49.303,61.816 47.551,57.562 35.538,40.043 31.534,32.785 27.939,26.271 24.509,22.218 9.51,7.258 6.257,4.014 0,0 0,0 Z"
             style="fill:none;stroke:#000000;stroke-width:1;stroke-linecap:butt;stroke-linejoin:miter;stroke-miterlimit:10;stroke-dasharray:none;stroke-opacity:1"
             id="path24" />
        </g>
        <g
           id="g26"
           transform="translate(244.916,692.5479)">
          <path
             d="m 0,0 c 0,0 27.779,8.759 31.534,10.511 3.754,1.752 3.003,3.254 5.255,3.004 2.253,-0.25 5.173,-2.503 7.092,-3.254 C 45.799,9.51 51.555,8.536 54.308,6.771 57.062,5.005 63.317,3.503 63.317,0 c 0,-3.503 0.752,-5.506 -2.002,-6.256 -2.752,-0.751 -17.518,-0.501 -21.272,-1.002 -3.754,-0.5 -16.769,-3.503 -20.272,-4.254 -3.503,-0.751 -20.522,-2.253 -22.524,0 -2.002,2.252 -5.255,3.754 -4.755,6.257 C -7.007,-2.753 0,0 0,0"
             style="fill:#000000;fill-opacity:1;fill-rule:nonzero;stroke:none"
             id="path28" />
        </g>
        <g
           id="g30"
           transform="translate(244.916,692.5479)">
          <path
             d="m 0,0 c 0,0 27.779,8.759 31.534,10.511 3.754,1.752 3.003,3.254 5.255,3.004 2.253,-0.25 5.173,-2.503 7.092,-3.254 C 45.799,9.51 51.555,8.536 54.308,6.771 57.062,5.005 63.317,3.503 63.317,0 c 0,-3.503 0.752,-5.506 -2.002,-6.256 -2.752,-0.751 -17.518,-0.501 -21.272,-1.002 -3.754,-0.5 -16.769,-3.503 -20.272,-4.254 -3.503,-0.751 -20.522,-2.253 -22.524,0 -2.002,2.252 -5.255,3.754 -4.755,6.257 C -7.007,-2.753 0,0 0,0 Z"
             style="fill:none;stroke:#000000;stroke-width:1;stroke-linecap:butt;stroke-linejoin:miter;stroke-miterlimit:10;stroke-dasharray:none;stroke-opacity:1"
             id="path32" />
        </g>
        <g
           id="g34"
           transform="translate(280.2041,624.7251)">
          <path
             d="m 0,0 c -2.003,-2.002 -21.273,-2.002 -21.273,-2.002 0,0 -4.504,10.753 -5.005,13.51 -0.501,2.758 -1.252,8.013 -1.252,8.013 l 39.293,7.008 C 11.763,26.529 2.002,2.002 0,0 m 35.537,39.792 c -2.002,3.755 -2.252,6.007 -5.255,8.259 -3.004,2.253 -6.007,0.251 -9.51,0 -3.503,-0.25 -7.257,-4.004 -10.052,-4.254 -2.795,-0.25 -37.749,-5.506 -41.003,-7.758 -3.253,-2.253 -7.007,-0.751 -10.511,0 -3.504,0.751 -4.505,2.252 -8.509,3.253 -4.005,1.001 -3.254,-0.75 -6.007,-3.253 0,0 0.251,-2.002 0,-3.163 -0.25,-1.161 11.201,-22.386 14.266,-29.622 2.614,-6.174 2.871,-16.601 5.255,-20.773 2.002,-3.503 10.262,-9.259 14.516,-8.508 4.254,0.75 2.002,2.752 2.002,6.506 0,3.754 1.501,1.752 5.506,3.242 4.004,1.49 12.513,0.262 20.272,0.012 7.758,-0.251 26.027,3.503 27.529,7.257 1.501,3.755 -1.502,3.755 -4.755,7.008 -3.254,3.254 0.501,5.506 1.251,10.762 0.751,5.255 7.008,11.512 9.761,13.764 2.753,2.252 -2.753,13.515 -4.756,17.268"
             style="fill:#000000;fill-opacity:1;fill-rule:nonzero;stroke:none"
             id="path36" />
        </g>
        <g
           id="g38"
           transform="translate(280.2041,624.7251)">
          <path
             d="m 0,0 c -2.003,-2.002 -21.273,-2.002 -21.273,-2.002 0,0 -4.504,10.753 -5.005,13.51 -0.501,2.758 -1.252,8.013 -1.252,8.013 l 39.293,7.008 C 11.763,26.529 2.002,2.002 0,0 Z m 35.537,39.792 c -2.002,3.755 -2.252,6.007 -5.255,8.259 -3.004,2.253 -6.007,0.251 -9.51,0 -3.503,-0.25 -7.257,-4.004 -10.052,-4.254 -2.795,-0.25 -37.749,-5.506 -41.003,-7.758 -3.253,-2.253 -7.007,-0.751 -10.511,0 -3.504,0.751 -4.505,2.252 -8.509,3.253 -4.005,1.001 -3.254,-0.75 -6.007,-3.253 0,0 0.251,-2.002 0,-3.163 -0.25,-1.161 11.201,-22.386 14.266,-29.622 2.614,-6.174 2.871,-16.601 5.255,-20.773 2.002,-3.503 10.262,-9.259 14.516,-8.508 4.254,0.75 2.002,2.752 2.002,6.506 0,3.754 1.501,1.752 5.506,3.242 4.004,1.49 12.513,0.262 20.272,0.012 7.758,-0.251 26.027,3.503 27.529,7.257 1.501,3.755 -1.502,3.755 -4.755,7.008 -3.254,3.254 0.501,5.506 1.251,10.762 0.751,5.255 7.008,11.512 9.761,13.764 2.753,2.252 -2.753,13.515 -4.756,17.268 z"
             style="fill:none;stroke:#000000;stroke-width:1;stroke-linecap:butt;stroke-linejoin:miter;stroke-miterlimit:10;stroke-dasharray:none;stroke-opacity:1"
             id="path40" />
        </g>
        <g
           id="g42"
           transform="translate(226.1455,556.1523)">
          <path
             d="m 0,0 c -0.5,4.004 -0.75,4.754 2.002,6.507 2.753,1.752 4.505,2.252 10.011,1.251 5.506,-1.001 16.226,-6.481 20.522,-11.762 13.64,-16.768 -6.251,-34.248 -8.259,-38.041 -0.205,-0.388 36.789,21.023 46.3,23.275 0,0 20.272,-5.256 19.02,-9.01 -2.197,-6.589 5.003,-3.545 -6.256,-7.008 -3.254,-1.001 -59.815,-20.771 -65.821,-18.269 l -6.006,2.503 c 0,0 -4.005,-0.751 -10.011,-3.253 -6.007,-2.503 -8.55,-5.15 -9.01,-4.505 -1.251,1.751 0.751,5.255 3.254,8.259 2.503,3.003 15.516,22.274 15.767,27.028 0.25,4.755 -0.251,7.508 -0.251,7.508 z"
             style="fill:#000000;fill-opacity:1;fill-rule:nonzero;stroke:none"
             id="path44" />
        </g>
        <g
           id="g46"
           transform="translate(226.1455,556.1523)">
          <path
             d="m 0,0 c -0.5,4.004 -0.75,4.754 2.002,6.507 2.753,1.752 4.505,2.252 10.011,1.251 5.506,-1.001 16.226,-6.481 20.522,-11.762 13.64,-16.768 -6.251,-34.248 -8.259,-38.041 -0.205,-0.388 36.789,21.023 46.3,23.275 0,0 20.272,-5.256 19.02,-9.01 -2.197,-6.589 5.003,-3.545 -6.256,-7.008 -3.254,-1.001 -59.815,-20.771 -65.821,-18.269 l -6.006,2.503 c 0,0 -4.005,-0.751 -10.011,-3.253 -6.007,-2.503 -8.55,-5.15 -9.01,-4.505 -1.251,1.751 0.751,5.255 3.254,8.259 2.503,3.003 15.516,22.274 15.767,27.028 0.25,4.755 -0.251,7.508 -0.251,7.508 z"
             style="fill:none;stroke:#000000;stroke-width:1;stroke-linecap:butt;stroke-linejoin:miter;stroke-miterlimit:10;stroke-dasharray:none;stroke-opacity:1"
             id="path48" />
        </g>
        <g
           id="g50"
           transform="translate(250.4219,494.0864)">
          <path
             d="m 0,0 c 6.006,2.502 36.289,13.514 38.541,15.516 2.252,2.002 -1.25,3.254 3.004,2.753 4.254,-0.5 23.024,-3.754 23.024,-6.757 0,-3.003 -1.251,-4.755 -3.254,-5.756 -2.002,-1.002 -47.3,-18.771 -58.061,-18.02 -10.762,0.751 -13.765,2.002 -12.764,4.505 C -8.51,-5.256 0,0 0,0"
             style="fill:#000000;fill-opacity:1;fill-rule:nonzero;stroke:none"
             id="path52" />
        </g>
        <g
           id="g54"
           transform="translate(250.4219,494.0864)">
          <path
             d="m 0,0 c 6.006,2.502 36.289,13.514 38.541,15.516 2.252,2.002 -1.25,3.254 3.004,2.753 4.254,-0.5 23.024,-3.754 23.024,-6.757 0,-3.003 -1.251,-4.755 -3.254,-5.756 -2.002,-1.002 -47.3,-18.771 -58.061,-18.02 -10.762,0.751 -13.765,2.002 -12.764,4.505 C -8.51,-5.256 0,0 0,0 Z"
             style="fill:none;stroke:#000000;stroke-width:1;stroke-linecap:butt;stroke-linejoin:miter;stroke-miterlimit:10;stroke-dasharray:none;stroke-opacity:1"
             id="path56" />
        </g>
        <g
           id="g58"
           transform="translate(233.6543,459.5483)">
          <path
             d="m 0,0 c 0.75,0.251 88.846,35.538 93.6,40.544 4.754,5.005 7.257,6.507 7.257,6.507 4.005,0.501 4.255,3.754 8.76,-1.252 4.505,-5.005 16.518,-16.564 6.006,-23.548 -10.511,-6.984 -10.512,-7.985 -12.514,-10.988 -2.001,-3.004 -7.506,-21.774 -1.25,-49.303 6.256,-27.53 8.258,-32.284 10.511,-35.038 2.253,-2.754 27.294,-11.384 36.038,-10.511 0,0 5.479,51.666 5.256,55.56 0,0 0.751,6.757 2.503,3.253 1.751,-3.504 5.505,-28.28 7.508,-32.284 2.002,-4.004 5.572,-19.981 8.509,-25.527 2.252,-4.256 2.883,-5.946 4.004,-8.51 1.751,-4.004 -9.915,-11.223 -9.154,-10.92 5.175,2.07 -45.849,-10.379 -63.424,8.668 -12.849,13.926 -24.089,19.057 -26.528,97.103 -0.235,7.542 -0.75,7.509 -0.75,7.509 0,0 -50.054,-21.524 -60.815,-23.025 -10.763,-1.502 -21.274,-1.502 -24.777,3.253 -3.504,4.755 -3.504,5.256 0,6.758 C -5.757,-0.25 0,0 0,0"
             style="fill:#000000;fill-opacity:1;fill-rule:nonzero;stroke:none"
             id="path60" />
        </g>
        <g
           id="g62"
           transform="translate(233.6543,459.5483)">
          <path
             d="m 0,0 c 0.75,0.251 88.846,35.538 93.6,40.544 4.754,5.005 7.257,6.507 7.257,6.507 4.005,0.501 4.255,3.754 8.76,-1.252 4.505,-5.005 16.518,-16.564 6.006,-23.548 -10.511,-6.984 -10.512,-7.985 -12.514,-10.988 -2.001,-3.004 -7.506,-21.774 -1.25,-49.303 6.256,-27.53 8.258,-32.284 10.511,-35.038 2.253,-2.754 27.294,-11.384 36.038,-10.511 0,0 5.479,51.666 5.256,55.56 0,0 0.751,6.757 2.503,3.253 1.751,-3.504 5.505,-28.28 7.508,-32.284 2.002,-4.004 5.572,-19.981 8.509,-25.527 2.252,-4.256 2.883,-5.946 4.004,-8.51 1.751,-4.004 -9.915,-11.223 -9.154,-10.92 5.175,2.07 -45.849,-10.379 -63.424,8.668 -12.849,13.926 -24.089,19.057 -26.528,97.103 -0.235,7.542 -0.75,7.509 -0.75,7.509 0,0 -50.054,-21.524 -60.815,-23.025 -10.763,-1.502 -21.274,-1.502 -24.777,3.253 -3.504,4.755 -3.504,5.256 0,6.758 C -5.757,-0.25 0,0 0,0 Z"
             style="fill:none;stroke:#000000;stroke-width:1;stroke-linecap:butt;stroke-linejoin:miter;stroke-miterlimit:10;stroke-dasharray:none;stroke-opacity:1"
             id="path64" />
        </g>
        <g
           id="g66"
           transform="translate(255.4268,403.4883)">
          <path
             d="m 0,0 c 0,0 1.002,24.277 -1.751,31.034 -2.754,6.758 -1.93,5.932 1.86,5.431 3.791,-0.5 10.304,-3.144 11.602,-6.432 1.679,-4.255 2.305,-25.547 2.305,-25.547 0,0 5.325,0.52 8.419,1.772 3.092,1.25 24.116,-1.002 25.116,-6.258 1.001,-5.256 1.251,-6.506 -1.251,-7.258 -2.503,-0.75 -26.529,-3.004 -27.279,-3.254 -0.751,-0.25 -3.254,-1.25 -3.254,-1.25 0,0 3.254,-49.552 -0.5,-51.054 -3.754,-1.502 -6.007,-1.502 -7.759,0 -1.751,1.502 -3.253,5.503 -6.256,8.007 -3.003,2.504 -15.127,11.012 -15.948,12.514 -0.821,1.502 -1.432,1.752 0,3.254 1.432,1.502 15.947,1.25 16.198,3.002 0.25,1.754 -1.251,22.301 -1.251,22.301 0,0 -30.783,-8.283 -33.912,-4.03 -2.785,3.788 -5.987,2.543 -3.512,5.756 C -32.315,-5.709 0,0 0,0"
             style="fill:#000000;fill-opacity:1;fill-rule:nonzero;stroke:none"
             id="path68" />
        </g>
        <g
           id="g70"
           transform="translate(255.4268,403.4883)">
          <path
             d="m 0,0 c 0,0 1.002,24.277 -1.751,31.034 -2.754,6.758 -1.93,5.932 1.86,5.431 3.791,-0.5 10.304,-3.144 11.602,-6.432 1.679,-4.255 2.305,-25.547 2.305,-25.547 0,0 5.325,0.52 8.419,1.772 3.092,1.25 24.116,-1.002 25.116,-6.258 1.001,-5.256 1.251,-6.506 -1.251,-7.258 -2.503,-0.75 -26.529,-3.004 -27.279,-3.254 -0.751,-0.25 -3.254,-1.25 -3.254,-1.25 0,0 3.254,-49.552 -0.5,-51.054 -3.754,-1.502 -6.007,-1.502 -7.759,0 -1.751,1.502 -3.253,5.503 -6.256,8.007 -3.003,2.504 -15.127,11.012 -15.948,12.514 -0.821,1.502 -1.432,1.752 0,3.254 1.432,1.502 15.947,1.25 16.198,3.002 0.25,1.754 -1.251,22.301 -1.251,22.301 0,0 -30.783,-8.283 -33.912,-4.03 -2.785,3.788 -5.987,2.543 -3.512,5.756 C -32.315,-5.709 0,0 0,0 Z"
             style="fill:none;stroke:#000000;stroke-width:1;stroke-linecap:butt;stroke-linejoin:miter;stroke-miterlimit:10;stroke-dasharray:none;stroke-opacity:1"
             id="path72" />
        </g>
        <g
           id="g74"
           transform="translate(272.4453,431.5952)">
          <path
             d="m 0,0 c 0,0 2.143,21.885 15.267,8.191 11.887,-12.406 2.002,-19.948 0,-20.948 C 13.264,-13.759 4.176,-18.066 0,-14.259 c -4.176,3.805 -3.003,6.763 -1.502,10.511 z"
             style="fill:#000000;fill-opacity:1;fill-rule:nonzero;stroke:none"
             id="path76" />
        </g>
        <g
           id="g78"
           transform="translate(272.4453,431.5952)">
          <path
             d="m 0,0 c 0,0 2.143,21.885 15.267,8.191 11.887,-12.406 2.002,-19.948 0,-20.948 C 13.264,-13.759 4.176,-18.066 0,-14.259 c -4.176,3.805 -3.003,6.763 -1.502,10.511 z"
             style="fill:none;stroke:#000000;stroke-width:1;stroke-linecap:butt;stroke-linejoin:miter;stroke-miterlimit:10;stroke-dasharray:none;stroke-opacity:1"
             id="path80" />
        </g>
        <g
           id="g82"
           transform="translate(293.082,377.7109)">
          <path
             d="M 0,0 C 1.387,0.752 1.887,9.51 6.893,9.51 11.898,9.51 17.654,0.502 18.404,0 19.155,-0.5 26.778,-14.516 9.202,-11.762 -8.374,-9.01 -3.618,-6.506 -2.117,-4.754 -0.615,-3.004 0,0 0,0"
             style="fill:#000000;fill-opacity:1;fill-rule:nonzero;stroke:none"
             id="path84" />
        </g>
        <g
           id="g86"
           transform="translate(293.082,377.7109)">
          <path
             d="M 0,0 C 1.387,0.752 1.887,9.51 6.893,9.51 11.898,9.51 17.654,0.502 18.404,0 19.155,-0.5 26.778,-14.516 9.202,-11.762 -8.374,-9.01 -3.618,-6.506 -2.117,-4.754 -0.615,-3.004 0,0 0,0 Z"
             style="fill:none;stroke:#000000;stroke-width:1;stroke-linecap:butt;stroke-linejoin:miter;stroke-miterlimit:10;stroke-dasharray:none;stroke-opacity:1"
             id="path88" />
        </g>
        <g
           id="g90"
           transform="translate(230.022,410.3086)">
          <path
             d="m 0,0 c -1.082,0.424 -14.296,5.094 -8.884,13.014 6.419,9.395 12.919,-0.52 15.14,-1.252 1.682,-0.553 12.013,-2.502 16.268,-1.752 4.255,0.751 0,-4.045 0,-4.045 0,0 -6.411,-10.203 -7.849,-11.276 -1.47,-1.093 -6.166,1.266 -10.421,3.29 z"
             style="fill:#000000;fill-opacity:1;fill-rule:nonzero;stroke:none"
             id="path92" />
        </g>
        <g
           id="g94"
           transform="translate(230.022,410.3086)">
          <path
             d="m 0,0 c -1.082,0.424 -14.296,5.094 -8.884,13.014 6.419,9.395 12.919,-0.52 15.14,-1.252 1.682,-0.553 12.013,-2.502 16.268,-1.752 4.255,0.751 0,-4.045 0,-4.045 0,0 -6.411,-10.203 -7.849,-11.276 -1.47,-1.093 -6.166,1.266 -10.421,3.29 z"
             style="fill:none;stroke:#000000;stroke-width:1;stroke-linecap:butt;stroke-linejoin:miter;stroke-miterlimit:10;stroke-dasharray:none;stroke-opacity:1"
             id="path96" />
        </g>
        <g
           id="g98"
           transform="translate(212.1309,355.4277)">
          <path
             d="M 0,0 C -13.515,16.646 -2.551,15.238 8.506,15.525 20.549,15.84 20.271,20.979 20.021,6.266 19.738,-10.367 8.199,-6.428 4.755,-4.746 Z"
             style="fill:#000000;fill-opacity:1;fill-rule:nonzero;stroke:none"
             id="path100" />
        </g>
        <g
           id="g102"
           transform="translate(212.1309,355.4277)">
          <path
             d="M 0,0 C -13.515,16.646 -2.551,15.238 8.506,15.525 20.549,15.84 20.271,20.979 20.021,6.266 19.738,-10.367 8.199,-6.428 4.755,-4.746 Z"
             style="fill:none;stroke:#000000;stroke-width:1;stroke-linecap:butt;stroke-linejoin:miter;stroke-miterlimit:10;stroke-dasharray:none;stroke-opacity:1"
             id="path104" />
        </g>
        <g
           id="g106"
           transform="translate(329.7568,286.8652)">
          <path
             d="M 0,0 C -0.751,-0.252 -14.266,-7.508 -1.252,6.256 11.763,20.02 17.77,26.777 17.77,29.029 c 0,2.254 -4.255,9.762 4.003,13.016 8.259,3.252 10.511,-0.5 14.515,-4.506 4.005,-4.004 6.258,-8.258 7.009,-9.76 C 44.047,26.277 48.552,18.02 28.53,9.26 8.509,0.5 0,0 0,0"
             style="fill:#000000;fill-opacity:1;fill-rule:nonzero;stroke:none"
             id="path108" />
        </g>
        <g
           id="g110"
           transform="translate(329.7568,286.8652)">
          <path
             d="M 0,0 C -0.751,-0.252 -14.266,-7.508 -1.252,6.256 11.763,20.02 17.77,26.777 17.77,29.029 c 0,2.254 -4.255,9.762 4.003,13.016 8.259,3.252 10.511,-0.5 14.515,-4.506 4.005,-4.004 6.258,-8.258 7.009,-9.76 C 44.047,26.277 48.552,18.02 28.53,9.26 8.509,0.5 0,0 0,0 Z"
             style="fill:none;stroke:#000000;stroke-width:1;stroke-linecap:butt;stroke-linejoin:miter;stroke-miterlimit:10;stroke-dasharray:none;stroke-opacity:1"
             id="path112" />
        </g>
        <g
           id="g114"
           transform="translate(313.7715,286.8652)">
          <path
             d="m 0,0 c 0,0 9.479,10.262 5.474,11.262 -4.004,1 -14.336,1.252 -15.552,1.502 -1.216,0.25 -12.729,7.81 -12.729,7.81 0,0 -6.27,0.699 -9.642,-4.808 C -35.82,10.26 -27.511,2.252 -24.533,0 -21.555,-2.252 -7.29,-7.26 -4.787,-6.258 -2.284,-5.256 0,0 0,0"
             style="fill:#000000;fill-opacity:1;fill-rule:nonzero;stroke:none"
             id="path116" />
        </g>
        <g
           id="g118"
           transform="translate(313.7715,286.8652)">
          <path
             d="m 0,0 c 0,0 9.479,10.262 5.474,11.262 -4.004,1 -14.336,1.252 -15.552,1.502 -1.216,0.25 -12.729,7.81 -12.729,7.81 0,0 -6.27,0.699 -9.642,-4.808 C -35.82,10.26 -27.511,2.252 -24.533,0 -21.555,-2.252 -7.29,-7.26 -4.787,-6.258 -2.284,-5.256 0,0 0,0 Z"
             style="fill:none;stroke:#000000;stroke-width:1;stroke-linecap:butt;stroke-linejoin:miter;stroke-miterlimit:10;stroke-dasharray:none;stroke-opacity:1"
             id="path120" />
        </g>
        <g
           id="g122"
           transform="translate(232.2251,256.832)">
          <path
             d="m 0,0 c 0,0 -10.731,-1.578 -11.588,1.002 -0.998,3.002 4.007,9.01 4.007,9.01 0,0 -14.766,17.267 -11.012,23.523 3.754,6.258 7.008,3.504 10.511,1.252 3.504,-2.252 5.506,-4.767 9.261,-6.889 3.754,-2.121 10.26,-7.193 11.762,-9.537 C 14.443,16.018 26.206,0.695 7.936,-0.654 -10.334,-2.002 0,0 0,0"
             style="fill:#000000;fill-opacity:1;fill-rule:nonzero;stroke:none"
             id="path124" />
        </g>
        <g
           id="g126"
           transform="translate(232.2251,256.832)">
          <path
             d="m 0,0 c 0,0 -10.731,-1.578 -11.588,1.002 -0.998,3.002 4.007,9.01 4.007,9.01 0,0 -14.766,17.267 -11.012,23.523 3.754,6.258 7.008,3.504 10.511,1.252 3.504,-2.252 5.506,-4.767 9.261,-6.889 3.754,-2.121 10.26,-7.193 11.762,-9.537 C 14.443,16.018 26.206,0.695 7.936,-0.654 -10.334,-2.002 0,0 0,0 Z"
             style="fill:none;stroke:#000000;stroke-width:1;stroke-linecap:butt;stroke-linejoin:miter;stroke-miterlimit:10;stroke-dasharray:none;stroke-opacity:1"
             id="path128" />
        </g>
        <g
           id="g130"
           transform="translate(285.709,254.3301)">
          <path
             d="m 0,0 c 0.751,0 -36.539,2.002 8.51,14.766 45.048,12.763 66.571,17.767 67.322,18.269 0.75,0.5 5.255,2.252 9.76,1.252 C 90.097,33.285 126.386,19.771 95.603,14.766 64.819,9.76 47.045,8.008 47.045,8.008 c 0,0 5.262,-11.262 -7.502,-17.518 -12.764,-6.258 -28.96,-17.068 -16.518,1.25 9.01,13.266 5.037,11.012 5.037,11.012 z"
             style="fill:#000000;fill-opacity:1;fill-rule:nonzero;stroke:none"
             id="path132" />
        </g>
        <g
           id="g134"
           transform="translate(285.709,254.3301)">
          <path
             d="m 0,0 c 0.751,0 -36.539,2.002 8.51,14.766 45.048,12.763 66.571,17.767 67.322,18.269 0.75,0.5 5.255,2.252 9.76,1.252 C 90.097,33.285 126.386,19.771 95.603,14.766 64.819,9.76 47.045,8.008 47.045,8.008 c 0,0 5.262,-11.262 -7.502,-17.518 -12.764,-6.258 -28.96,-17.068 -16.518,1.25 9.01,13.266 5.037,11.012 5.037,11.012 z"
             style="fill:none;stroke:#000000;stroke-width:1;stroke-linecap:butt;stroke-linejoin:miter;stroke-miterlimit:10;stroke-dasharray:none;stroke-opacity:1"
             id="path136" />
        </g>
        <g
           id="g138"
           transform="translate(346.9717,230.6836)">
          <path
             d="m 0,0 4.433,-73.395 c 0,0 -18.582,-0.564 -24.401,-2.066 -5.819,-1.5 -14.453,-0.937 -16.142,-1.5 -1.69,-0.564 -0.595,20.676 -0.595,20.676 l 28.155,1.5 c 0,0 20.355,8.043 -5.668,14.426 -3.419,0.838 -10.818,0 -14.572,-1.315 -4.941,-1.73 -8.537,-0.75 -8.537,-0.75 v 10.887 c 0,0 24.492,0.562 27.495,1.687 3.003,1.127 8.446,3.004 8.071,5.821 -0.376,2.814 -5.256,10.322 -15.955,9.009 -10.699,-1.314 -19.611,-5.068 -19.611,-5.068 v 15.203 c 0,0 -6.667,6.758 -9.858,8.26 -3.191,1.5 -10.699,3.566 -7.883,-5.443 2.815,-9.01 2.815,-5.069 2.815,-5.069 0,0 -1.689,-66.822 -0.75,-67.759 0.939,-0.94 10.698,-19.147 13.326,-18.772 2.628,0.377 31.158,6.008 36.227,6.008 5.067,0 6.194,-1.127 6.194,-1.127 0,0 6.569,-11.262 10.886,-11.262 4.317,0 9.573,5.819 9.573,5.819 0,0 2.065,44.109 0,57.06 -2.064,12.953 -1.877,14.641 -1.877,14.641 0,0 6.691,10.197 6.757,15.017 0.088,6.381 -3.566,24.776 -21.585,24.026 -6.885,-0.287 -6.288,-3.629 -8.071,-3.192 0,0 -17.692,-2.074 -22.9,-3.754 C -30.292,7.691 -42.672,-3.33 -19.968,-1.506 1.055,0.184 0,0 0,0"
             style="fill:#000000;fill-opacity:1;fill-rule:nonzero;stroke:none"
             id="path140" />
        </g>
        <g
           id="g142"
           transform="translate(346.9717,230.6836)">
          <path
             d="m 0,0 4.433,-73.395 c 0,0 -18.582,-0.564 -24.401,-2.066 -5.819,-1.5 -14.453,-0.937 -16.142,-1.5 -1.69,-0.564 -0.595,20.676 -0.595,20.676 l 28.155,1.5 c 0,0 20.355,8.043 -5.668,14.426 -3.419,0.838 -10.818,0 -14.572,-1.315 -4.941,-1.73 -8.537,-0.75 -8.537,-0.75 v 10.887 c 0,0 24.492,0.562 27.495,1.687 3.003,1.127 8.446,3.004 8.071,5.821 -0.376,2.814 -5.256,10.322 -15.955,9.009 -10.699,-1.314 -19.611,-5.068 -19.611,-5.068 v 15.203 c 0,0 -6.667,6.758 -9.858,8.26 -3.191,1.5 -10.699,3.566 -7.883,-5.443 2.815,-9.01 2.815,-5.069 2.815,-5.069 0,0 -1.689,-66.822 -0.75,-67.759 0.939,-0.94 10.698,-19.147 13.326,-18.772 2.628,0.377 31.158,6.008 36.227,6.008 5.067,0 6.194,-1.127 6.194,-1.127 0,0 6.569,-11.262 10.886,-11.262 4.317,0 9.573,5.819 9.573,5.819 0,0 2.065,44.109 0,57.06 -2.064,12.953 -1.877,14.641 -1.877,14.641 0,0 6.691,10.197 6.757,15.017 0.088,6.381 -3.566,24.776 -21.585,24.026 -6.885,-0.287 -6.288,-3.629 -8.071,-3.192 0,0 -17.692,-2.074 -22.9,-3.754 C -30.292,7.691 -42.672,-3.33 -19.968,-1.506 1.055,0.184 0,0 0,0 Z"
             style="fill:none;stroke:#000000;stroke-width:1;stroke-linecap:butt;stroke-linejoin:miter;stroke-miterlimit:10;stroke-dasharray:none;stroke-opacity:1"
             id="path144" />
        </g>
        <g
           id="g146"
           transform="translate(211.0044,221.6699)">
          <path
             d="m 0,0 26.841,19.896 c 0,0 15.955,-7.132 16.705,-9.009 C 44.297,9.01 44.11,2.064 43.546,0 42.984,-2.064 29.844,-31.91 29.844,-31.91 c 0,0 10.324,-10.887 11.263,-15.766 0.938,-4.881 0.562,-43.359 0.562,-43.359 0,0 49.178,-9.01 59.314,-11.449 10.136,-2.442 34.162,-6.571 36.977,-6.946 2.816,-0.375 46.55,-2.252 55.372,-3.566 8.822,-1.315 13.89,-0.563 17.081,0 3.19,0.562 21.961,4.881 24.213,2.439 l 2.252,-2.439 c 0,0 -2.064,-3.942 -4.504,-5.068 -2.441,-1.125 -33.036,-11.45 -40.919,-12.389 -7.883,-0.938 -7.883,-0.75 -9.76,-2.065 -1.877,-1.312 -3.379,-3.566 -4.505,-3.753 -1.127,-0.188 -27.217,1.126 -33.224,3.566 -6.006,2.441 -78.083,25.34 -81.837,25.715 -3.754,0.375 -39.98,2.064 -43.922,1.127 -3.941,-0.94 -16.33,-4.506 -20.459,-5.069 -4.13,-0.562 -10.324,-0.562 -13.139,6.006 -2.816,6.571 -0.751,9.949 9.009,12.014 9.761,2.064 29.845,4.129 30.408,10.887 0.563,6.757 0,10.511 0,10.511 0,0 0.938,18.957 -0.376,21.209 -1.314,2.254 -7.883,1.502 -11.074,5.819 -3.191,4.318 -5.443,8.634 -4.317,15.392 l 1.126,6.758 c 0,0 -2.44,-1.689 -9.572,-1.502 -7.133,0.188 -16.518,5.443 -19.709,6.193 -3.191,0.752 -4.317,6.946 4.129,9.762 8.447,2.815 7.884,3.377 9.949,4.504 C -3.754,-2.252 0,0 0,0"
             style="fill:#000000;fill-opacity:1;fill-rule:nonzero;stroke:none"
             id="path148" />
        </g>
        <g
           id="g150"
           transform="translate(211.0044,221.6699)">
          <path
             d="m 0,0 26.841,19.896 c 0,0 15.955,-7.132 16.705,-9.009 C 44.297,9.01 44.11,2.064 43.546,0 42.984,-2.064 29.844,-31.91 29.844,-31.91 c 0,0 10.324,-10.887 11.263,-15.766 0.938,-4.881 0.562,-43.359 0.562,-43.359 0,0 49.178,-9.01 59.314,-11.449 10.136,-2.442 34.162,-6.571 36.977,-6.946 2.816,-0.375 46.55,-2.252 55.372,-3.566 8.822,-1.315 13.89,-0.563 17.081,0 3.19,0.562 21.961,4.881 24.213,2.439 l 2.252,-2.439 c 0,0 -2.064,-3.942 -4.504,-5.068 -2.441,-1.125 -33.036,-11.45 -40.919,-12.389 -7.883,-0.938 -7.883,-0.75 -9.76,-2.065 -1.877,-1.312 -3.379,-3.566 -4.505,-3.753 -1.127,-0.188 -27.217,1.126 -33.224,3.566 -6.006,2.441 -78.083,25.34 -81.837,25.715 -3.754,0.375 -39.98,2.064 -43.922,1.127 -3.941,-0.94 -16.33,-4.506 -20.459,-5.069 -4.13,-0.562 -10.324,-0.562 -13.139,6.006 -2.816,6.571 -0.751,9.949 9.009,12.014 9.761,2.064 29.845,4.129 30.408,10.887 0.563,6.757 0,10.511 0,10.511 0,0 0.938,18.957 -0.376,21.209 -1.314,2.254 -7.883,1.502 -11.074,5.819 -3.191,4.318 -5.443,8.634 -4.317,15.392 l 1.126,6.758 c 0,0 -2.44,-1.689 -9.572,-1.502 -7.133,0.188 -16.518,5.443 -19.709,6.193 -3.191,0.752 -4.317,6.946 4.129,9.762 8.447,2.815 7.884,3.377 9.949,4.504 C -3.754,-2.252 0,0 0,0 Z"
             style="fill:none;stroke:#000000;stroke-width:1;stroke-linecap:butt;stroke-linejoin:miter;stroke-miterlimit:10;stroke-dasharray:none;stroke-opacity:1"
             id="path152" />
        </g>
      </g>
    </g>
  </g>
</svg>
